<svg xmlns="http://www.w3.org/2000/svg" viewBox="0 0 100 100">
  <defs>
    <linearGradient id="grad" x1="0%" y1="0%" x2="100%" y2="100%">
      <stop offset="0%" style="stop-color:#667eea;stop-opacity:1" />
      <stop offset="100%" style="stop-color:#764ba2;stop-opacity:1" />
    </linearGradient>
  </defs>
  
  <!-- Shield background -->
  <path d="M50 10 L80 25 L80 60 Q80 75 50 85 Q20 75 20 60 L20 25 Z" fill="url(#grad)"/>
  
  <!-- Inner shield -->
  <path d="M50 20 L70 30 L70 55 Q70 65 50 72 Q30 65 30 55 L30 30 Z" fill="rgba(255,255,255,0.2)"/>
  
  <!-- Database icon -->
  <ellipse cx="50" cy="35" rx="15" ry="5" fill="white"/>
  <path d="M35 35 L35 45 Q35 50 50 50 Q65 50 65 45 L65 35" fill="white"/>
  <path d="M35 45 L35 55 Q35 60 50 60 Q65 60 65 55 L65 45" fill="white"/>
  
  <!-- Checkmark -->
  <path d="M42 50 L47 55 L58 40" stroke="white" stroke-width="3" fill="none" stroke-linecap="round" stroke-linejoin="round"/>
</svg>